# xmcd CD database file
#
# Track frame offsets:
#	150
#	20505
#	42145
#	63475
#	79340
#	91480
#	103430
#	125270
#	140047
#	157342
#
# Disc length: 2403 seconds
#
# Revision: 3
# Processed by: cddbd v1.4PL0 Copyright (c) Steve Scherf et al.
# Submitted via: CDex 1.40Release
#
DISCID=9009610a
DTITLE=Shearing, George - Grand Piano
DYEAR=1900
DGENRE=Jazz
TTITLE0=When A Woman Loves A Man
TTITLE1=It Never Entered My Mind
TTITLE2=Mack The Knife
TTITLE3=Nobody Else But Me
TTITLE4=Imitations
TTITLE5=Taking A Chance On Love
TTITLE6=If I Had You
TTITLE7=How Insensitive
TTITLE8=Easy To Love
TTITLE9=While We're Young
EXTD=ID3G: 8
EXTT0=
EXTT1=
EXTT2=
EXTT3=
EXTT4=
EXTT5=
EXTT6=
EXTT7=
EXTT8=
EXTT9=
PLAYORDER=
